<?xml version="1.0" encoding="UTF-8"?>
<svg width="154px" height="96px" viewBox="0 0 154 96" version="1.1" xmlns="http://www.w3.org/2000/svg" xmlns:xlink="http://www.w3.org/1999/xlink">
    <!-- Generator: Sketch 49.3 (51167) - http://www.bohemiancoding.com/sketch -->
    <title>hand-shake</title>
    <desc>Created with Sketch.</desc>
    <defs></defs>
    <g id="Page-1" stroke="none" stroke-width="1" fill="none" fill-rule="evenodd">
        <g id="Group-2" transform="translate(-317.000000, -97.000000)" fill="#FFFFFF" fill-rule="nonzero">
            <g id="hand-shake" transform="translate(317.000000, 97.000000)">
                <path d="M121.595934,65.823 C118.573684,59.5383 107.7615,50.8149 97.3153672,42.3861 C91.4889336,37.6884 85.9834336,33.2469 82.4736172,29.7462 C81.5944336,28.863 80.2791172,28.5813 79.1178008,28.9974 C76.9554844,29.7783 75.6206172,30.3798 74.5684844,30.8469 C72.964418,31.5636 72.425418,31.8069 70.2628008,32.0244 C69.3066172,32.1204 68.4469844,32.6325 67.9143008,33.426 C63.3776172,40.1907 58.6806172,39.6147 55.5428672,38.5653 C54.5418672,38.2326 54.3623008,37.8036 54.2660508,37.3941 C53.5923008,34.5846 56.9739844,28.0437 61.3563672,23.6724 C71.7835508,13.266 77.1606172,10.6611 88.5181172,15.7236 C101.402684,21.4707 114.313117,25.9701 114.441551,26.0148 C116.129234,26.5971 117.945051,25.7139 118.528867,24.0435 C119.106367,22.3731 118.227184,20.5491 116.552434,19.9668 C116.424,19.9221 103.770434,15.5124 91.1424336,9.8739 C76.4291172,3.3138 68.35675,7.6338 56.826,19.1412 C52.437,23.5188 46.4758164,32.3763 48.0158164,38.8725 C48.6766328,41.6373 50.6275,43.6854 53.5276328,44.6388 C60.7978164,47.0325 67.4324492,44.7411 72.3733828,38.2005 C74.4138828,37.887 75.5240664,37.4262 77.1921992,36.6774 C77.7952656,36.4086 78.5011992,36.0951 79.4381328,35.7174 C83.1085664,39.1542 88.0621328,43.1541 93.2788828,47.3589 C102.711383,54.9684 113.408066,63.5958 115.814316,68.5878 C117.0015,71.0517 115.724383,72.6582 114.858133,73.3941 C113.587633,74.4822 111.848816,74.8278 110.905566,74.1684 C109.866066,73.458 108.51225,73.4133 107.440566,74.0532 C106.362566,74.6931 105.7595,75.9027 105.89425,77.1444 C106.112316,79.1796 104.245066,80.3445 103.436566,80.7477 C101.383133,81.7845 99.2400664,81.6054 98.4378828,80.8629 C97.5394492,80.031 96.2496992,79.7877 95.1076328,80.2101 C93.9655664,80.6388 93.1696992,81.6885 93.0541992,82.9044 C92.8616992,85.0035 91.3024492,87.0195 89.2682656,87.8067 C88.2865156,88.1778 86.8620156,88.4019 85.5851992,87.237 C84.7896328,86.5203 83.6857656,86.2449 82.6528828,86.4945 C81.6070664,86.7504 80.7663828,87.5058 80.4006328,88.5105 C80.2788164,88.8306 80.0026992,89.5986 76.9996992,89.5986 C74.8629492,89.5986 71.0192656,88.1586 69.1393828,86.9169 C66.8871328,85.4385 52.7639492,74.9298 40.5660664,64.7409 C38.8528164,63.3009 35.8883164,60.216 33.2703164,57.4896 C30.9473828,55.0704 28.8235664,52.8753 27.7326328,51.9537 C26.3658828,50.8017 24.3446328,50.9745 23.2088828,52.3314 C22.0668164,53.6817 22.2334492,55.7043 23.5875664,56.8434 C24.58225,57.6819 26.50725,59.7105 28.6310664,61.9185 C31.493,64.9008 34.4508828,67.9857 36.44025,69.6498 C48.3881836,79.6275 62.7486836,90.3987 65.6103164,92.2737 C67.97175,93.8226 73.0600664,95.9985 77,95.9985 C80.1633164,95.9985 82.5954336,95.2752 84.2828164,93.861 C86.5413828,94.7379 89.10825,94.7442 91.5785664,93.7842 C94.49825,92.6577 96.8978828,90.3858 98.2583164,87.6339 C100.786383,88.1715 103.6805,87.7938 106.311133,86.4756 C108.884316,85.1829 110.744949,83.2053 111.668949,80.8947 C114.222883,81.0291 116.853516,80.1267 119.028766,78.2643 C122.712434,75.1221 123.726066,70.2327 121.595934,65.823 Z" id="Shape"></path>
                <path d="M64.1665664,12.7989 L35.2915664,12.7989 C33.5205664,12.7989 32.0831328,14.2326 32.0831328,15.999 C32.0831328,17.7654 33.5205664,19.1991 35.2915664,19.1991 L64.1665664,19.1991 C65.9375664,19.1991 67.375,17.7654 67.375,15.999 C67.375,14.2326 65.9375664,12.7989 64.1665664,12.7989 Z" id="Shape"></path>
                <path d="M130.99625,59.0133 C130.001566,57.5478 128.0125,57.1446 126.543184,58.143 L117.162117,64.4277 C115.692801,65.4132 115.301184,67.4037 116.289551,68.8692 C116.911867,69.7845 117.925801,70.2837 118.958984,70.2837 C119.568668,70.2837 120.190984,70.1109 120.742918,69.7398 L130.123984,63.4551 C131.593,62.4693 131.984316,60.4791 130.99625,59.0133 Z" id="Shape"></path>
                <path d="M111.078816,74.2839 C108.78175,72.4791 98.5085664,61.9896 92.1560664,55.3848 C90.9303828,54.1047 88.8965,54.06 87.6193828,55.2888 C86.3359492,56.5113 86.2974492,58.5399 87.5231328,59.8137 C89.1723164,61.5288 103.718699,76.6521 107.100383,79.3146 C107.684199,79.7754 108.390133,79.9995 109.083133,79.9995 C110.026383,79.9995 110.969633,79.5771 111.611199,78.777 C112.70875,77.3943 112.471434,75.3783 111.078816,74.2839 Z" id="Shape"></path>
                <path d="M98.2583164,80.703 C94.4146328,77.6373 84.75775,67.4037 82.5758828,65.0358 C81.3694492,63.7302 79.3481992,63.6534 78.0391992,64.8438 C76.7365156,66.0405 76.6468828,68.0694 77.8466992,69.3687 C77.9621992,69.4902 89.4866328,81.9 94.2476992,85.7016 C94.8381328,86.1687 95.5503828,86.3991 96.2496992,86.3991 C97.1866328,86.3991 98.1232656,85.983 98.7585156,85.2024 C99.8626836,83.8197 99.638,81.8037 98.2583164,80.703 Z" id="Shape"></path>
                <path d="M85.48925,87.1479 C80.9140664,83.3016 71.55225,73.3623 69.7235,71.4102 C68.51075,70.1175 66.4765664,70.047 65.1868164,71.2566 C63.89075,72.4662 63.8263828,74.4885 65.0328164,75.7815 C67.66375,78.591 76.6213164,88.0632 81.3505,92.0439 C81.9535664,92.5494 82.6850664,92.799 83.4165664,92.799 C84.3276328,92.799 85.239,92.4087 85.87425,91.6599 C87.0163164,90.303 86.8430664,88.287 85.48925,87.1479 Z" id="Shape"></path>
                <path d="M37.499,7.2759 C31.9998164,2.079 10.01,0.3957 3.40093359,0.0054 C2.48986719,-0.0393 1.64918359,0.2613 1.00761719,0.8694 C0.36575,1.4709 0,2.3157 0,3.1989 L0,60.7989 C0,62.5653 1.43743359,63.999 3.20843359,63.999 L22.4584336,63.999 C23.8444336,63.999 25.0764336,63.1095 25.50625,61.791 C25.9745664,60.3573 37.0306836,26.5143 38.4870664,9.8742 C38.5706836,8.9013 38.21125,7.9413 37.499,7.2759 Z M20.11625,57.5991 L6.41656641,57.5991 L6.41656641,6.6294 C16.72825,7.4421 27.85475,9.2085 31.89725,11.1669 C30.1969336,25.1829 22.50325,50.0853 20.11625,57.5991 Z" id="Shape"></path>
                <path d="M150.791566,6.399 C125.599633,6.399 111.624133,12.831 111.040316,13.0998 C110.20625,13.4901 109.583633,14.2134 109.327066,15.0903 C109.0705,15.9672 109.198633,16.908 109.679883,17.6886 C113.645383,24.0567 126.061633,59.4231 128.448633,68.0502 C128.833633,69.4389 130.097816,70.3989 131.541566,70.3989 L150.791566,70.3989 C152.562566,70.3989 154,68.9652 154,67.1988 L154,9.5988 C154,7.8261 152.562566,6.399 150.791566,6.399 Z M147.583434,63.999 L133.9415,63.999 C130.9,54.1173 121.916566,28.3509 116.90525,17.7015 C121.801066,16.044 132.318184,13.1958 147.583434,12.8376 L147.583434,63.999 Z" id="Shape"></path>
            </g>
        </g>
    </g>
</svg>