<?xml version="1.0" encoding="UTF-8"?>
<svg width="383px" height="492px" viewBox="0 0 383 492" version="1.1" xmlns="http://www.w3.org/2000/svg" xmlns:xlink="http://www.w3.org/1999/xlink">
    <!-- Generator: Sketch 49.3 (51167) - http://www.bohemiancoding.com/sketch -->
    <title>refresh</title>
    <desc>Created with Sketch.</desc>
    <defs></defs>
    <g id="Page-1" stroke="none" stroke-width="1" fill="none" fill-rule="evenodd">
        <g id="refresh" fill="#3F00FF" fill-rule="nonzero">
            <path d="M1.89,262.818 C-1.11,236.818 1.39,211.718 8.19,188.518 C30.79,111.418 101.69,54.718 185.79,53.718 L185.79,3.318 C185.79,0.518 189.29,-0.982 191.59,0.718 L295.29,76.918 C296.99,78.218 296.99,80.818 295.29,82.018 L191.69,158.218 C189.29,159.918 185.89,158.418 185.89,155.618 L185.89,105.318 C130.59,106.218 83.39,140.318 63.09,188.518 C55.39,206.718 51.49,226.818 52.59,247.918 C54.09,276.918 64.99,303.618 82.19,325.218 C91.39,336.718 89.19,353.518 77.29,362.218 C65.99,370.518 50.19,368.218 41.49,357.218 C20.19,330.618 5.99,298.218 1.89,262.818 Z M301.29,166.018 C318.59,187.518 329.49,214.318 330.89,243.318 C331.99,264.518 327.99,284.618 320.39,302.718 C300.09,350.918 252.89,385.118 197.59,385.918 L197.59,335.618 C197.59,332.818 194.09,331.318 191.79,333.018 L88.09,409.218 C86.39,410.518 86.39,413.118 88.09,414.318 L191.69,490.518 C194.09,492.218 197.49,490.718 197.49,487.918 L197.49,437.518 C281.59,436.618 352.59,379.918 375.09,302.718 C381.89,279.518 384.29,254.418 381.39,228.418 C377.39,193.018 363.19,160.618 341.89,134.018 C333.09,123.018 317.39,120.718 306.09,129.018 C294.29,137.718 292.09,154.518 301.29,166.018 Z" id="Shape"></path>
        </g>
    </g>
</svg>