<?xml version="1.0" encoding="UTF-8"?>
<svg width="287px" height="51px" viewBox="0 0 287 51" version="1.1" xmlns="http://www.w3.org/2000/svg" xmlns:xlink="http://www.w3.org/1999/xlink">
    <!-- Generator: Sketch 49.3 (51167) - http://www.bohemiancoding.com/sketch -->
    <title>LOGO</title>
    <desc>Created with Sketch.</desc>
    <defs></defs>
    <g id="ASSET-TO-EXPORT\" stroke="none" stroke-width="1" fill="none" fill-rule="evenodd">
        <g id="LOGO" transform="translate(1.000000, 1.000000)">
            <g id="Group" stroke-width="1" fill-rule="evenodd" stroke="#3F00FF">
                <path d="M27.5748185,33.7253167 C33.8725399,33.5854079 40.5926094,35.5773424 46.4679826,33.3055902 C48.5399834,32.5044372 46.3878972,28.8192064 45.8130998,26.6733636 C45.6644318,26.1183538 35.5038353,2.18094851 28.963881,15.4706292 C26.5741019,20.3268409 33.4042535,39.6939472 34.8714982,43.4391839 C35.4091042,44.8114579 36.8295606,48.5338287 37.2968889,47.1360589 C38.4543751,43.6740397 37.8304965,39.7960661 37.2968889,36.184887 C36.4199216,30.2500293 29.1981659,23.2481678 33.0927873,18.684887 C36.2439055,14.9927599 39.7974501,26.2787855 44.3761857,27.8901605 C46.0416762,28.4762895 47.4310848,25.5905524 47.8242326,23.869262 C48.5585894,20.6540811 47.1705922,17.2546997 47.5535295,13.9790277 C47.6085233,13.5086067 48.6674495,13.8637251 48.9494279,14.244262 C56.4870424,24.4164628 48.268311,25.9276448 40.3074357,33.888012 C36.8220785,37.3731468 35.0185185,42.9013849 30.5634904,45.0100823 C27.2933343,46.5579446 23.2661602,44.6386021 19.8023576,43.5936761 C13.5093332,41.6952582 7.21719627,39.4940025 1.5039201,36.2436761 C-2.71334486,33.8444419 3.19362473,30.5875741 3.99903729,30.2225823 C9.50729994,27.7263829 15.4923646,26.3168593 20.870131,23.5507073 C27.531688,20.1242145 33.9505467,9.66182066 41.8851701,27.8053948 C43.1769398,30.7591985 33.642163,25.1545008 32.2164201,28.0460198 L31.4713029,31.6225823 C31.0457578,32.4856213 29.5550231,32.7192569 29.4410295,33.6747308 C28.8500737,38.6280146 31.0711379,43.9254137 29.4410295,48.6399652 C28.8999401,50.2048879 26.0405937,48.5535376 24.5341935,47.866137 C22.1684508,46.7866012 20.0121664,45.2190176 18.0947404,43.4624261 C14.3598216,40.0407936 10.7000417,36.4663815 7.66446698,32.4114495 C0.775339067,23.2089268 32.4350431,20.3793913 35.9324357,21.4356683 C39.0440068,22.37542 44.2333606,30.2372464 43.9400529,27.0001214 C43.5831501,23.0611203 23.3403254,2.36965714 19.4455217,0.495824526 C18.3787183,-0.0174262377 16.9955991,-0.192142193 15.9017717,0.260668276 C13.3298271,1.32537313 13.2064001,6.7417619 14.8845842,15.2012933 C16.8180162,24.9475002 13.2761762,45.2676685 23.1109514,43.8520745 L25.6443498,45.379223 C34.44961,44.1118149 25.0693152,19.9782635 24.3906389,19.1784417 C18.4905777,12.2252049 21.6954145,61.9207162 29.1689592,43.3175042 C30.1332642,40.9171477 32.0543485,38.0372485 30.8588029,35.7432855 C24.6260788,23.7841947 25.670637,39.9540659 23.4089982,38.0989495 C22.3642599,37.2419996 22.1290227,34.4782561 23.4089982,34.0452386 L26.7627092,28.1649652 C31.1780875,26.6712365 36.3983828,26.5000095 40.7463029,28.1800042 C45.0963094,29.8608051 47.8356206,34.2570327 51.1136857,37.5739495 C51.402961,37.8666533 51.6318652,38.6653702 51.2435685,38.8016839 C48.6540935,39.7107334 45.0691113,38.0743189 43.1429826,36.7290277 C33.5191338,30.0073169 24.421928,22.549887 14.773842,15.863012 C10.7084829,13.0454016 1.44849688,3.33163211 2.04122479,8.2423089 C6.17870915,42.5208504 32.3300274,28.4674774 52.9416154,38.4872308 C53.740329,38.8755033 51.1635459,39.0273758 50.298842,38.8249261 C45.1787852,37.6261873 40.1397544,36.0690655 35.1777482,34.3282464 C34.8225914,34.2036469 34.5620857,33.7001693 34.6445451,33.3329339 C34.7253619,32.9730137 35.2451961,32.9045485 35.5455217,32.6903558" id="Path-3" stroke-width="1.4"></path>
            </g>
            <text id="Hackvibes" font-family="Colfax-WebMedium, Colfax Web Medium" font-size="44.8" font-weight="normal" line-spacing="43.4" letter-spacing="0.311111113" fill="#232323">
                <tspan x="64.4" y="46.5">Hackvibes</tspan>
            </text>
        </g>
    </g>
</svg>