<?xml version="1.0" encoding="UTF-8"?>
<svg width="598px" height="488px" viewBox="0 0 598 488" version="1.1" xmlns="http://www.w3.org/2000/svg" xmlns:xlink="http://www.w3.org/1999/xlink">
    <!-- Generator: Sketch 49.3 (51167) - http://www.bohemiancoding.com/sketch -->
    <title>illustration--atoms-grey</title>
    <desc>Created with Sketch.</desc>
    <defs></defs>
    <g id="ASSET-TO-EXPORT\" stroke="none" stroke-width="1" fill="none" fill-rule="evenodd">
        <g id="illustration--atoms-grey" transform="translate(1.000000, 1.000000)">
            <g id="illustration--atoms">
                <path d="M309.542503,332.512352 C380.237888,331.13293 455.674364,350.772267 521.628659,328.374088 C544.888008,320.475177 520.729656,284.140907 514.277239,262.984123 C512.608359,257.512044 398.550076,21.5029061 325.135493,152.531564 C298.308908,200.411036 374.981115,391.359638 391.451745,428.285531 C397.486668,441.815369 413.432072,478.515818 418.678088,464.734606 C431.671508,430.601075 424.668128,392.366472 418.678088,356.762309 C408.833649,298.248004 327.765469,229.213651 371.484736,184.222309 C406.857771,147.820045 446.748264,259.093809 498.147089,274.981045 C516.843135,280.759942 532.440011,252.308224 536.853311,235.337284 C545.09687,203.637437 529.515839,170.12148 533.81452,137.825225 C534.431856,133.187143 546.318885,136.688407 549.484247,140.440284 C634.098116,240.732371 541.838335,255.631763 452.473133,334.116434 C413.348081,368.477872 393.102128,422.983141 343.091988,443.773692 C306.382687,459.03473 261.175443,440.111109 222.292354,429.808736 C151.649695,411.091421 81.0169972,389.388297 16.8823302,357.341936 C-30.4587882,333.686858 35.8501938,301.576002 44.8913928,297.977392 C106.72467,273.366292 173.910312,259.469195 234.278698,232.196517 C309.058338,198.413255 381.113557,95.2600308 470.184069,274.145305 C484.684894,303.268121 377.651781,248.009004 361.647033,276.51773 L353.282682,311.780592 C348.505705,320.289663 331.771388,322.593177 330.491747,332.013603 C323.857943,380.850151 348.79061,433.079479 330.491747,479.562263 C324.417721,494.991507 292.319985,478.710137 275.409815,471.93276 C248.853052,461.289153 224.647573,445.833675 203.123412,428.514686 C161.196894,394.779345 120.113852,359.537685 86.0378568,319.558372 C8.70360741,228.826756 364.101196,200.929154 403.361352,211.343441 C438.290448,220.608856 496.543798,298.121972 493.251258,266.205769 C489.244827,227.369469 262.007988,23.3634653 218.286675,4.8885465 C206.31122,-0.171812746 190.784947,-1.89441223 178.506132,2.57004025 C149.63464,13.0674217 148.249104,66.46992 167.087643,149.876065 C188.791481,245.968097 149.032379,446.313345 259.433139,432.356397 L287.871929,447.413208 C386.715818,434.917289 281.416849,196.974262 273.798334,189.088476 C207.566903,120.533534 243.542958,610.50288 327.437608,427.085839 C338.262463,403.419696 359.82769,375.025535 346.407033,352.40837 C276.441278,234.498569 288.167018,393.924259 262.778879,375.633872 C251.051116,367.184835 248.41045,339.935904 262.778879,335.666599 L300.426128,277.690462 C349.991178,262.963152 408.591864,261.274951 457.399658,277.838739 C506.230873,294.410475 536.981148,337.754767 573.779232,370.457672 C577.026506,373.343564 579.596081,381.218456 575.237238,382.562431 C546.168956,391.52514 505.925559,375.391028 484.303706,362.127225 C376.27071,295.854998 274.149573,222.329 165.844501,156.400234 C120.208609,128.620206 16.260174,32.8479888 22.9138708,81.264456 C69.3594081,419.231288 362.922337,280.67306 594.298748,379.462103 C603.264746,383.290248 574.33894,384.787625 564.632162,382.791586 C507.156709,370.972707 450.590817,355.620375 394.889569,338.456894 C390.902739,337.228413 387.978419,332.264413 388.904071,328.643681 C389.811284,325.095073 395.646709,324.420046 399.018028,322.308228" id="Path-3" stroke="#121212" stroke-width="1.6" opacity="0.215466486" style="mix-blend-mode: multiply;"></path>
                <ellipse id="Oval-4" stroke="#DCDCDC" stroke-width="4" cx="154" cy="72.5" rx="11" ry="9.5"></ellipse>
                <ellipse id="Oval-4" stroke="#DCDCDC" stroke-width="4" cx="536" cy="206.5" rx="11" ry="9.5"></ellipse>
                <ellipse id="Oval-4" stroke="#DCDCDC" stroke-width="4" cx="59" cy="204.5" rx="11" ry="9.5"></ellipse>
                <ellipse id="Oval-4" stroke="#DCDCDC" stroke-width="4" cx="369" cy="333.5" rx="11" ry="9.5"></ellipse>
                <ellipse id="Oval-4" stroke="#DCDCDC" stroke-width="4" cx="143" cy="405.5" rx="11" ry="9.5"></ellipse>
                <ellipse id="Oval-4" stroke="#DCDCDC" stroke-width="4" cx="239" cy="269.5" rx="11" ry="9.5"></ellipse>
            </g>
        </g>
    </g>
</svg>