<?xml version="1.0" encoding="UTF-8"?>
<svg width="471px" height="413px" viewBox="0 0 471 413" version="1.1" xmlns="http://www.w3.org/2000/svg" xmlns:xlink="http://www.w3.org/1999/xlink">
    <!-- Generator: Sketch 49.3 (51167) - http://www.bohemiancoding.com/sketch -->
    <title>illustration--beans</title>
    <desc>Created with Sketch.</desc>
    <defs></defs>
    <g id="ASSET-TO-EXPORT\" stroke="none" stroke-width="1" fill="none" fill-rule="evenodd" opacity="0.263813406">
        <g id="illustration--beans" fill="#262626">
            <path d="M150.8,268.288372 C234.08454,268.288372 444,125.918783 444,52.8685281 C444,-20.1817271 234.08454,3.74999685 150.8,3.74999685 C67.5154597,3.74999685 0,62.9689293 0,136.019184 C0,209.06944 67.5154597,268.288372 150.8,268.288372 Z" id="Oval-3" opacity="0.112941576" style="mix-blend-mode: multiply;"></path>
            <path d="M328.20036,362.4 C373.81928,362.4 488.8,284.506691 488.8,244.539405 C488.8,204.572118 373.81928,217.665653 328.20036,217.665653 C282.581441,217.665653 245.6,250.06554 245.6,290.032827 C245.6,330.000113 282.581441,362.4 328.20036,362.4 Z" id="Oval-3" opacity="0.0763700181" style="mix-blend-mode: multiply;" transform="translate(367.200000, 289.006977) rotate(134.000000) translate(-367.200000, -289.006977) "></path>
            <path d="M95.9581982,422.097674 C134.37413,422.097674 231.2,356.503309 231.2,322.846647 C231.2,289.189985 134.37413,300.216119 95.9581982,300.216119 C57.5422661,300.216119 26.4,327.500235 26.4,361.156897 C26.4,394.813559 57.5422661,422.097674 95.9581982,422.097674 Z" id="Oval-3" opacity="0.0763700181" style="mix-blend-mode: multiply;" transform="translate(128.800000, 360.293023) rotate(23.000000) translate(-128.800000, -360.293023) "></path>
        </g>
    </g>
</svg>